<svg width="164" height="109" viewBox="0 0 164 109" fill="none" xmlns="http://www.w3.org/2000/svg">
<path d="M34.8112 31.7242C36.3263 28.6588 38.1409 25.7344 40.1845 22.9861C44.1131 17.8771 48.9578 13.4552 54.5249 10.196C60.8494 6.39072 68.0549 4.08288 75.4012 3.39581C83.1704 2.65587 91.0981 3.80099 98.374 6.65497C104.699 9.06852 110.407 12.9267 115.269 17.5952C119.585 21.841 123.161 26.8443 125.751 32.3056C125.998 32.2703 126.244 32.2527 126.509 32.2175C123.725 26.2453 119.832 20.7664 115.005 16.2916C110.177 11.7816 104.522 8.17005 98.3564 5.82697C94.7625 4.48806 91.0277 3.46627 87.2223 2.92012C76.2468 1.31697 64.7428 3.50149 55.1062 8.99806C42.3514 16.1506 33.0319 29.0288 30.0898 43.3339C30.3365 43.2987 30.6007 43.281 30.8474 43.2458C31.7106 39.282 33.0848 35.4238 34.8112 31.7242Z" fill="#FDFDFD"/>
<path d="M81.5502 17.4368C81.656 18.1767 81.7793 18.9166 81.9026 19.6741C82.5192 19.6918 83.1182 19.7094 83.7348 19.727C82.9772 15.7279 82.2373 11.7464 81.515 7.74731C80.687 7.74731 79.8766 7.74731 79.0486 7.74731C78.1677 11.7112 77.3574 15.675 76.5117 19.6389C77.0931 19.6389 77.6568 19.6389 78.2382 19.6565C78.3791 18.8814 78.5553 18.1238 78.6962 17.3663C79.6476 17.3663 80.5989 17.3663 81.5502 17.4368ZM80.1585 9.98469C80.5813 11.905 80.8456 13.8429 81.2331 15.7631C80.4932 15.7631 79.7709 15.7631 79.031 15.7103C79.4362 13.8076 79.7533 11.8873 80.1585 9.98469Z" fill="#FDFDFD"/>
<path d="M69.3602 20.3084C70.47 20.9954 71.9323 20.7135 73.007 20.097C74.064 19.4275 74.2225 18.0005 73.9935 16.873C73.6412 15.3755 73.2888 13.8781 72.9893 12.363C72.7427 11.2884 72.6546 10.0375 71.7914 9.24478C71.1219 8.59295 70.1178 8.48724 69.2369 8.73388C68.3913 8.91006 67.5104 9.29764 67.1052 10.108C66.6119 10.9889 66.8409 12.0283 67.0523 12.9444C67.4575 14.6357 67.7923 16.3445 68.127 18.0534C68.2855 18.899 68.6026 19.8151 69.3602 20.3084ZM69.2369 10.4604C69.6949 10.2842 70.3996 10.249 70.6815 10.7422C70.981 11.3236 71.0338 11.993 71.1924 12.6449C71.5095 14.389 71.9851 16.0978 72.2494 17.8419C72.3198 18.7757 71.0867 19.2866 70.3996 18.758C70.1177 18.4762 70.0472 18.0533 69.9415 17.6834C69.5364 15.675 69.0783 13.6843 68.6731 11.6759C68.5146 11.2003 68.7788 10.6718 69.2369 10.4604Z" fill="#FDFDFD"/>
<path d="M89.4786 12.3101C89.8133 15.217 89.919 18.1414 90.2185 21.0483C90.7999 21.2068 91.3636 21.3654 91.945 21.5063C92.8787 17.701 93.7419 13.8605 94.6757 10.0552C94.1472 9.94944 93.6363 9.84376 93.1254 9.7028C92.4912 12.0811 91.9626 14.477 91.3989 16.8554C91.2051 14.2833 91.0465 11.7112 90.7999 9.13904C90.0776 9.01572 89.3553 8.87479 88.633 8.69861C87.7345 12.4687 86.9241 16.2564 85.9199 19.9912C86.4661 20.1145 87.0122 20.2379 87.5583 20.3788C88.1925 17.6834 88.8444 14.9879 89.4786 12.3101Z" fill="#FDFDFD"/>
<path d="M66.8041 21.7882C66.5575 21.3125 66.3461 20.8193 66.117 20.3436C65.1128 20.8545 64.0911 21.3301 63.0693 21.7882C61.6775 18.7757 60.2681 15.7631 58.8764 12.7506C58.3831 12.9973 57.8722 13.2615 57.3789 13.4905C57.6784 14.5123 58.2245 15.4461 58.6649 16.415C59.8277 18.9519 61.0256 21.4887 62.206 24.008C63.7563 23.3385 65.2538 22.5105 66.8041 21.7882Z" fill="#FDFDFD"/>
<path d="M108.029 26.5448C108.769 27.3729 109.438 28.2537 110.125 29.117C110.161 28.0071 110.266 26.8796 110.301 25.7697C111.411 25.4173 112.486 24.9769 113.614 24.6774C112.539 24.2723 111.482 23.8318 110.39 23.4795C110.407 22.3872 110.407 21.2773 110.39 20.1851C109.685 21.0659 108.927 21.8939 108.17 22.7219C107.113 22.352 105.985 22.1582 104.928 21.753C105.598 22.6691 106.179 23.6557 106.848 24.5717C106.144 25.5231 105.51 26.5449 104.717 27.4257C105.791 27.0557 106.937 26.8796 108.029 26.5448Z" fill="#FDFDFD"/>
<path d="M54.8405 40.5328C57.5183 35.371 61.7641 31.002 66.9083 28.2713C72.5634 25.1883 79.2932 24.1489 85.6001 25.4702C91.8366 26.8091 97.6326 30.2268 101.755 35.1068C102.178 35.0539 102.601 35.0187 103.006 34.9658C101.262 32.9927 99.3767 31.1429 97.2098 29.6102C94.2678 27.4081 90.8677 25.8225 87.3266 24.8712C80.3326 22.8981 72.6163 23.9199 66.2917 27.4609C60.848 30.4206 56.4085 35.1244 53.625 40.6386C54.0478 40.621 54.4354 40.5681 54.8405 40.5328Z" fill="#FDFDFD"/>
<path d="M96.4187 30.9667C93.4061 28.6941 89.8651 27.1614 86.2183 26.2277C80.7041 24.9416 74.7672 25.4525 69.5525 27.7075C63.6155 30.2091 58.6474 34.8248 55.5645 40.4623C62.2766 39.6696 69.0064 38.9472 75.7185 38.1368C84.1571 37.2031 92.5957 36.1285 101.052 35.1595C99.6074 33.6445 98.1275 32.1823 96.4187 30.9667ZM71.3318 34.6839C70.9971 35.23 70.6624 35.7938 70.3981 36.3752C70.31 35.7233 70.1514 35.0891 69.9577 34.4725C69.341 34.3316 68.7244 34.173 68.1079 34.0849C68.6716 33.8383 69.2001 33.5212 69.6934 33.1688C69.6758 32.4994 69.6405 31.8299 69.5348 31.1605C69.9929 31.6185 70.4686 32.0413 70.9618 32.4641C71.5432 32.3056 72.107 32.1294 72.6707 31.9356C72.4241 32.4465 72.1774 32.9574 71.9484 33.4859C72.336 33.9087 72.706 34.3315 73.1111 34.7367C72.5298 34.6839 71.9308 34.6839 71.3318 34.6839ZM79.9994 31.9532C80.2813 32.746 80.5808 33.5564 80.8274 34.3668C80.017 33.9968 79.2419 33.5035 78.3963 33.2393C77.6916 33.7854 76.9341 34.2435 76.2822 34.8424C76.3527 33.9792 76.5113 33.116 76.5817 32.2527C76.6346 32.0237 76.3703 31.918 76.2294 31.777C75.6481 31.3718 75.1019 30.9138 74.5029 30.5262C75.3662 30.4733 76.1942 30.2443 77.0398 30.1034C77.4098 29.2577 77.7269 28.3769 77.9911 27.496C78.3435 28.324 78.8191 29.0816 79.2596 29.8743C80.1228 29.9448 80.9861 30.0153 81.8669 30.0329C81.1974 30.6496 80.5984 31.2838 79.9994 31.9532ZM87.2577 33.0103C87.2225 33.6797 87.1344 34.3492 87.152 35.0186C86.7997 34.4549 86.3769 33.944 85.9188 33.4683C85.3375 33.6093 84.7561 33.7326 84.1924 33.9264C84.5799 33.4155 84.9147 32.8693 85.2318 32.3232C84.9323 31.7419 84.5623 31.1957 84.0514 30.7729C84.6856 30.9491 85.3374 31.0548 85.9893 31.1958C86.4473 30.7729 86.8877 30.3325 87.2753 29.8569C87.2577 30.4558 87.2754 31.0372 87.293 31.6362C87.8743 31.8828 88.4381 32.1295 89.0194 32.3585C88.4381 32.5522 87.8391 32.7636 87.2577 33.0103Z" fill="#FDFDFD"/>
<path d="M43.8131 30.6671C42.8266 31.1604 41.8929 31.777 40.8711 32.1822C42.0338 32.4112 43.1966 32.7107 44.3593 32.975C44.5178 34.0848 44.8173 35.1771 45.0111 36.3046C45.5396 35.2476 46.2443 34.3139 46.8081 33.292C47.9356 33.4682 49.0807 33.5739 50.2082 33.8206C49.3625 32.9749 48.5345 32.0941 47.777 31.1604C48.3584 30.1914 48.7812 29.1344 49.3802 28.183C48.3408 28.6411 47.319 29.1696 46.2619 29.6277C45.3811 28.7821 44.4826 27.9717 43.6193 27.1084C43.7955 28.1302 43.8307 29.152 43.9364 30.1914C43.9188 30.3324 44.0598 30.6143 43.8131 30.6671Z" fill="#FDFDFD"/>
<path d="M138.453 54.6266C139.422 54.4681 140.444 54.1862 141.114 53.4287C141.871 52.4949 142.047 51.2441 141.924 50.0814C141.66 47.4916 141.29 44.9196 141.043 42.3298C140.92 41.1319 140.744 39.8458 139.916 38.9297C139.141 38.0841 137.943 37.8727 136.85 37.9784C135.282 38.1193 133.697 38.2955 132.129 38.5245C132.781 44.0739 133.327 49.6233 133.926 55.1551C135.423 54.9261 136.938 54.8557 138.453 54.6266ZM137.379 40.4272C138.172 40.6915 138.365 41.6076 138.436 42.3299C138.682 44.9196 139.035 47.5093 139.281 50.099C139.317 50.7861 139.387 51.6846 138.7 52.1074C137.96 52.4421 137.115 52.4069 136.322 52.5126C135.899 48.5311 135.406 44.5496 135.018 40.5681C135.793 40.48 136.586 40.2334 137.379 40.4272Z" fill="#FDFDFD"/>
<path d="M124.465 56.2296C127.055 55.9654 129.627 55.6306 132.217 55.384C132.111 54.5913 131.988 53.8161 131.917 53.0233C130.243 53.2171 128.57 53.3933 126.914 53.64C126.685 51.9311 126.473 50.2222 126.35 48.4957C127.601 48.39 128.869 48.2491 130.12 48.0906C130.032 47.3154 129.944 46.5403 129.856 45.7651C128.605 45.9765 127.337 46.0646 126.068 46.2407C125.927 44.6904 125.681 43.1401 125.54 41.5898C127.108 41.3608 128.693 41.2022 130.261 41.026C130.173 40.2509 130.102 39.4757 130.032 38.7006C127.566 39.0177 125.099 39.2819 122.633 39.5814C123.302 45.1309 123.866 50.6802 124.465 56.2296Z" fill="#FDFDFD"/>
<path d="M118.176 53.6575C117.771 52.5477 117.56 51.3673 117.208 50.2398C116.344 47.0158 115.411 43.8095 114.53 40.5856C113.578 40.7265 112.627 40.797 111.693 40.9203C113.437 46.3111 114.988 51.7548 116.609 57.1809C117.877 57.04 119.145 56.8638 120.414 56.6876C120.608 51.0149 121.03 45.3598 121.33 39.7047C120.502 39.828 119.674 39.9514 118.828 40.0042C118.599 44.5847 118.511 49.1299 118.176 53.6575Z" fill="#FDFDFD"/>
<path d="M111.271 45.8532C111.147 44.4967 110.883 42.9992 109.791 42.0832C108.734 41.1494 107.236 41.1847 105.933 41.3961C104.911 41.5899 103.889 42.0656 103.325 42.9816C102.744 43.8801 102.674 44.99 102.779 46.0294C103.061 48.3901 103.325 50.7332 103.59 53.0939C103.713 54.3447 103.748 55.666 104.418 56.7759C104.911 57.6567 105.862 58.2381 106.866 58.3438C108.17 58.5024 109.58 58.3262 110.725 57.6215C111.923 56.864 112.293 55.3137 112.169 53.9571C111.923 51.2617 111.535 48.5663 111.271 45.8532ZM108.681 55.9126C108.082 56.0711 107.289 56.1064 106.849 55.5779C106.373 54.9613 106.391 54.1509 106.303 53.411C106.038 50.7156 105.651 48.0201 105.404 45.3071C105.299 44.6376 105.58 43.8625 106.268 43.6687C107.131 43.2987 108.293 43.7391 108.417 44.7433C108.84 47.8616 109.122 50.9798 109.527 54.098C109.668 54.8027 109.421 55.7012 108.681 55.9126Z" fill="#FDFDFD"/>
<path d="M101.669 52.812C101.457 51.8431 100.718 50.8918 99.6605 50.786C100.735 50.2223 101.281 48.9715 101.158 47.7911C101.052 46.646 100.982 45.4833 100.594 44.4086C100.207 43.3164 99.0791 42.5765 97.9164 42.5941C96.0842 42.5765 94.2873 42.9816 92.4551 43.0345C92.9484 48.6015 93.6354 54.1509 94.1816 59.7003C95.0448 59.6123 95.908 59.5241 96.7713 59.4185C96.5423 57.1458 96.278 54.8732 96.0666 52.583C96.7713 52.4949 97.4936 52.3011 98.2159 52.4421C98.8854 52.6535 99.1848 53.3934 99.2729 54.0452C99.4491 55.3137 99.5372 56.5821 99.6781 57.8329C99.7838 58.2381 99.8191 58.7842 100.207 59.0133C101.052 58.9957 101.898 58.8371 102.744 58.749C102.55 58.4143 102.356 58.062 102.303 57.6744C102.056 56.0712 102.021 54.4152 101.669 52.812ZM98.3568 49.4648C97.705 50.1694 96.6304 50.0637 95.7671 50.1694C95.6262 48.4782 95.4147 46.8046 95.221 45.1309C96.049 45.0957 96.9474 44.6905 97.7402 45.1133C98.3921 45.5009 98.3568 46.3465 98.4802 47.016C98.5506 47.8087 98.8149 48.7248 98.3568 49.4648Z" fill="#FDFDFD"/>
<path d="M90.3586 44.7786C89.6539 43.9682 88.5088 43.6159 87.4517 43.7392C85.9014 43.8978 84.3511 44.0916 82.7832 44.2149C83.4174 49.7467 83.9812 55.2784 84.5801 60.8102C85.461 60.7222 86.3243 60.6341 87.2051 60.5284C86.9761 58.3439 86.7294 56.1593 86.518 53.9572C87.6455 53.8691 88.8435 53.8339 89.8653 53.3054C90.9047 52.7592 91.4156 51.5613 91.4684 50.4338C91.5037 49.3591 91.3451 48.3021 91.2042 47.2627C91.0809 46.3994 90.9399 45.4657 90.3586 44.7786ZM88.8787 50.2752C88.8787 50.8566 88.4559 51.4027 87.8922 51.5084C87.346 51.6141 86.7999 51.6669 86.2538 51.7374C86.0776 49.9228 85.8486 48.1083 85.6724 46.2937C86.3947 46.2232 87.1346 46.0119 87.8569 46.2056C88.4031 46.3642 88.5616 46.9808 88.6497 47.4741C88.7907 48.3902 88.8964 49.3239 88.8787 50.2752Z" fill="#FDFDFD"/>
<path d="M81.1447 46.4345C80.6514 45.3951 79.4886 44.7785 78.3611 44.8314C76.617 44.849 74.9082 45.2014 73.1641 45.3247C73.7807 50.8389 74.3444 56.3706 74.961 61.8848C75.8419 61.832 76.7227 61.7263 77.6036 61.6206C77.2689 59.4713 77.1279 57.3044 76.8813 55.1551C78.2731 55.0494 79.8762 54.9789 80.9333 53.9219C81.9551 52.8825 82.0608 51.2793 81.867 49.9052C81.6908 48.7424 81.6732 47.5092 81.1447 46.4345ZM79.2068 51.984C78.7487 52.9353 77.5332 52.7415 76.6699 52.8648C76.4409 51.0326 76.2295 49.2005 76.0357 47.3683C76.8461 47.3331 77.7446 47.0159 78.5197 47.4387C79.1011 47.8263 79.0659 48.6015 79.1539 49.2181C79.2068 50.1341 79.4886 51.0855 79.2068 51.984Z" fill="#FDFDFD"/>
<path d="M65.1491 46.3112C64.7263 51.9311 64.3564 57.551 63.9688 63.1885C64.7615 63.0827 65.5543 63.0299 66.3471 62.9418C66.4528 61.8672 66.4704 60.7925 66.5233 59.7179C67.7212 59.5593 68.9016 59.4888 70.0995 59.3479C70.3462 60.3521 70.6633 61.3386 70.9452 62.3428C71.826 62.2723 72.7245 62.149 73.6054 62.0433C71.9493 56.6701 70.4167 51.244 68.743 45.8707C67.545 46.0293 66.3471 46.1703 65.1491 46.3112ZM66.6818 57.4452C66.7699 54.697 66.9989 51.9487 67.087 49.1828C67.5803 50.3279 67.7917 51.5435 68.1616 52.7238C68.6197 54.1861 69.0249 55.6835 69.4477 57.1634C68.5316 57.2338 67.6155 57.3396 66.6818 57.4452Z" fill="#FDFDFD"/>
<path d="M57.0444 47.1744C56.2869 47.2625 55.5294 47.3506 54.7542 47.4035C55.0185 50.7507 55.547 54.0804 55.776 57.4453C54.4371 54.2213 52.9749 51.0326 51.5655 47.8263C50.5261 47.8792 49.4867 48.0553 48.4473 48.1258C48.8701 51.7021 49.2048 55.296 49.61 58.8899C49.839 60.863 49.9623 62.8362 50.2442 64.8093C51.037 64.6683 51.8298 64.6155 52.6225 64.4922C52.2173 60.5459 51.6888 56.6173 51.3012 52.6887C53.0982 56.4235 54.6661 60.2817 56.3574 64.0693C57.2206 63.9636 58.1014 63.9108 58.9647 63.7698C58.7533 62.4485 58.63 61.1273 58.4714 59.806C57.9782 55.5778 57.5201 51.3849 57.0444 47.1744Z" fill="#FDFDFD"/>
<path d="M43.9033 48.6191C42.6701 48.7953 41.4369 48.901 40.2037 49.0948C39.9219 54.7323 39.4814 60.3698 39.041 66.0073C39.869 65.8839 40.697 65.7959 41.5074 65.6902C41.6131 64.686 41.6484 63.6818 41.7012 62.66C42.9344 62.5191 44.15 62.3253 45.3832 62.2372C45.6827 63.2061 45.9117 64.2103 46.2112 65.1793C47.0921 65.0912 47.9905 64.9679 48.8714 64.8621C48.1315 62.2372 47.233 59.6651 46.4931 57.0577C45.5946 54.2743 44.8194 51.4203 43.9033 48.6191ZM41.8245 60.3698C42.0888 57.5687 42.124 54.7675 42.3883 51.9664C43.181 54.6442 43.9738 57.322 44.6961 60.0175C43.7448 60.1408 42.7935 60.2817 41.8245 60.3698Z" fill="#FDFDFD"/>
<path d="M29.2281 63.3119C29.3866 64.5098 29.968 65.7606 31.0602 66.3596C31.8883 66.8353 32.8748 66.8001 33.7909 66.7648C35.0241 66.6767 36.3278 66.2011 37.0325 65.144C37.7019 64.1399 37.7724 62.8538 37.5786 61.6911C37.2791 58.9076 36.9444 56.1064 36.6097 53.3229C36.4688 52.1954 36.0107 51.0327 35.0594 50.3456C34.0023 49.6057 32.6106 49.6585 31.395 49.8347C30.4084 50.0285 29.4219 50.4513 28.8405 51.297C28.1358 52.3187 28.1358 53.6224 28.2768 54.8028C28.6467 57.6567 28.8757 60.4931 29.2281 63.3119ZM31.8706 52.213C32.4168 52.0721 33.0686 52.0721 33.5091 52.4773C33.8966 52.8649 33.9495 53.4286 34.0199 53.9571C34.3371 56.952 34.6894 59.9469 34.9537 62.9595C35.1298 64.2984 33.3153 64.8798 32.3992 64.1751C31.8354 63.6466 31.8354 62.8186 31.765 62.0962C31.5007 59.3832 31.2012 56.6702 30.8841 53.9747C30.7607 53.2348 31.0955 52.3892 31.8706 52.213Z" fill="#FDFDFD"/>
<path d="M28.5749 67.1699C28.4339 66.4124 28.3811 65.6549 28.2754 64.8797C26.7251 65.0383 25.1747 65.2144 23.642 65.373C23.0607 60.634 22.6026 55.8773 22.0565 51.1207C21.1932 51.1912 20.3476 51.3498 19.4844 51.4202C20.0129 56.952 20.7528 62.4662 21.2637 67.998C23.6949 67.6984 26.1437 67.4518 28.5749 67.1699Z" fill="#FDFDFD"/>
<path d="M129.292 66.0425C129.063 67.2052 128.729 68.3327 128.394 69.4602C125.61 78.6035 120.396 87.0774 113.173 93.3491C109.297 96.8197 104.84 99.656 100.065 101.717C95.2207 103.867 90.006 105.065 84.7561 105.593C76.9517 106.298 68.9711 105.258 61.6776 102.369C49.786 97.7005 39.7794 88.381 34.371 76.8066H34.3181C34.0539 76.8418 33.8072 76.8946 33.543 76.9299C37.6478 85.4566 44.0252 92.9087 51.9353 98.141C57.7842 101.982 64.4082 104.659 71.3142 105.822C78.3787 107.055 85.6898 106.756 92.631 105.029C98.1275 103.62 103.413 101.312 108.134 98.1762C111.904 95.6217 115.392 92.6444 118.387 89.2091C123.073 83.8358 126.615 77.476 128.817 70.6935C129.292 69.1079 129.733 67.5048 130.12 65.9016C129.856 65.9369 129.592 65.9545 129.328 66.0073C129.328 66.0425 129.31 66.0425 129.292 66.0425Z" fill="#FDFDFD"/>
<path d="M57.4669 74.1992C61.2017 78.3745 66.0288 81.6689 71.4373 83.2192C78.7308 85.439 86.8876 84.6286 93.5821 80.9642C95.6786 79.7838 97.6517 78.3921 99.431 76.7713C101.897 74.4458 104.011 71.7328 105.544 68.7026C105.157 68.7379 104.787 68.7555 104.417 68.7907C104.364 68.8964 104.293 69.0021 104.24 69.1078C101.475 74.164 97.0527 78.2159 91.9261 80.7351C85.7248 83.6772 78.4313 84.2762 71.8425 82.3031C66.804 80.8937 62.2235 77.934 58.6825 74.0935C58.2596 74.1111 57.8369 74.1287 57.4316 74.1287L57.4669 74.1992Z" fill="#FDFDFD"/>
<path d="M67.7548 72.9661C64.9713 73.3008 62.1878 73.5827 59.4219 74.0407C63.3857 78.0574 68.4595 81.1052 74.0265 82.1975C80.9677 83.6597 88.5078 82.4089 94.4977 78.5683C98.2501 76.1372 101.404 72.8252 103.641 68.9493C100.311 69.1784 96.9817 69.6188 93.6696 69.9711C85.0196 70.9401 76.3872 71.9971 67.7548 72.9661ZM73.2689 77.4232C72.8814 77.9341 72.5114 78.4802 72.1062 78.9735C72.0181 78.3569 72.071 77.6875 71.7891 77.1413C71.243 76.8947 70.644 76.8418 70.0626 76.7185C70.6264 76.4366 71.1725 76.1371 71.701 75.7848C71.6658 75.2034 71.6482 74.6221 71.6306 74.0407C72.071 74.4811 72.5467 74.8863 73.0576 75.2738C73.6213 75.0448 74.2027 74.8334 74.7664 74.6044C74.4669 75.1681 74.1675 75.7319 73.9032 76.3133C74.3084 76.8065 74.7136 77.2998 75.1892 77.7226C74.555 77.5641 73.9032 77.4761 73.2689 77.4232ZM83.9802 79.0088C83.2226 78.6564 82.4651 78.3393 81.7076 78.0222C81.0205 78.5331 80.2982 79.044 79.6816 79.643C79.7168 78.7621 79.8049 77.8813 79.8049 77.0004C79.2059 76.4014 78.4132 76.0491 77.6909 75.591C78.4484 75.3796 79.2412 75.2387 79.9635 74.9568C80.3158 74.1288 80.5625 73.2479 80.7562 72.3671C81.1438 73.1951 81.6724 73.935 82.1833 74.6749C83.0113 74.6573 83.8216 74.6573 84.6497 74.6221C84.1211 75.2387 83.575 75.8552 83.1346 76.5423C83.2226 77.4232 83.7159 78.1808 83.9802 79.0088ZM90.8156 75.6086C90.7804 76.2076 90.7628 76.8066 90.7628 77.4056C90.3752 77.018 89.97 76.648 89.5648 76.2605C88.913 76.4542 88.2611 76.6304 87.6621 76.9299C88.0145 76.4014 88.314 75.8201 88.6487 75.2563C88.3316 74.7278 87.944 74.2169 87.5389 73.7588C88.1555 73.8822 88.7544 73.9526 89.371 74.0055C89.7586 73.5298 90.0757 73.0189 90.3928 72.4904C90.5162 73.0894 90.6219 73.706 90.7276 74.305C91.3266 74.4812 91.9255 74.675 92.5597 74.7454C91.9784 75.0273 91.397 75.3092 90.8156 75.6086Z" fill="#FDFDFD"/>
<path d="M117.7 80.788C118.123 80.0833 118.44 79.2377 118.176 78.4273C117.947 77.5817 117.225 77.0356 116.538 76.5599C115.199 75.6615 113.825 74.8158 112.486 73.935C111.763 73.5121 110.988 73.0013 110.107 73.0894C109.491 73.1422 109.033 73.565 108.68 74.0231C107.923 74.992 107.289 76.0491 106.584 77.0709C109.737 79.1673 112.873 81.2989 116.009 83.413C116.591 82.5497 117.172 81.6865 117.7 80.788ZM108.857 76.5247C109.227 75.9609 109.614 75.3972 110.09 74.8863C111.041 75.1329 111.834 75.7143 112.644 76.2076C113.701 76.8594 114.723 77.5289 115.745 78.2335C116.115 78.4978 116.573 78.8149 116.538 79.3258C116.362 79.9776 115.956 80.5238 115.586 81.0699C113.384 79.502 111.129 78.0045 108.857 76.5247Z" fill="#FDFDFD"/>
<path d="M109.561 90.7418C110.847 89.579 112.045 88.3282 113.261 87.1302C112.856 86.7779 112.468 86.4079 112.063 86.038C111.27 86.8308 110.425 87.5707 109.649 88.3634C108.874 87.465 107.976 86.7074 107.148 85.8618C107.747 85.1219 108.452 84.4525 109.121 83.7654C108.698 83.413 108.275 83.0607 107.853 82.7083C107.183 83.3602 106.531 84.012 105.897 84.6815C105.157 83.9239 104.417 83.184 103.642 82.4793C104.452 81.6689 105.21 80.7881 106.073 80.0129C105.668 79.6077 105.228 79.2025 104.805 78.8325C103.695 80.1714 102.391 81.2989 101.264 82.6202C102.18 83.4306 103.043 84.2938 103.906 85.1395C105.809 86.9893 107.747 88.8038 109.561 90.7418Z" fill="#FDFDFD"/>
<path d="M52.4635 89.4381C53.1857 90.0547 53.9433 90.6184 54.648 91.235C54.278 91.9221 53.9433 92.6268 53.5733 93.2963C53.9961 93.6662 54.4365 94.001 54.8946 94.3005C55.335 93.5782 55.7226 92.8206 56.0926 92.0631C57.4843 89.2444 58.8937 86.4432 60.3207 83.6421C59.6336 83.0783 58.929 82.5498 58.189 82.0565C55.3174 84.7167 52.4282 87.3417 49.5742 90.0019C50.0323 90.3366 50.4551 90.6889 50.8955 91.0589C51.3888 90.5128 51.9349 89.9666 52.4635 89.4381ZM58.0657 84.3644C57.0968 86.1261 56.2335 87.9406 55.2998 89.72C54.7713 89.2267 54.2076 88.7862 53.6614 88.3106C55.1589 87.0069 56.4978 85.5623 58.0657 84.3644Z" fill="#FDFDFD"/>
<path d="M103.959 94.8641C103.29 93.2786 102.797 91.6226 102.18 90.0194C101.352 87.8173 100.63 85.5975 99.8545 83.3954C99.3788 83.7477 98.9208 84.1177 98.4451 84.4524C99.555 87.4826 100.735 90.4951 101.687 93.5781C99.6607 91.1646 97.7581 88.6453 95.7849 86.1965C95.1683 86.3199 94.7103 86.9541 94.1113 87.2007C96.7011 90.1604 99.1851 93.2082 101.616 96.2912C102.391 95.8331 103.149 95.3222 103.959 94.8641Z" fill="#FDFDFD"/>
<path d="M60.7281 97.3659C61.3799 95.9565 61.9613 94.5119 62.6483 93.1201C63.5644 93.5253 64.5862 93.9657 65.608 93.6486C66.5946 93.3668 67.0878 92.3626 67.4754 91.4817C67.7749 90.6889 68.2154 89.8786 68.0568 89.0153C67.9511 88.2402 67.4226 87.5883 66.7707 87.2007C65.8194 86.6194 64.7624 86.2318 63.7934 85.7032C62.2255 89.3324 60.7985 92.9968 59.1777 96.6083C59.6887 96.8726 60.1996 97.1192 60.7281 97.3659ZM64.7624 88.0464C65.2733 88.3106 65.9075 88.4868 66.1717 89.0505C66.2775 89.6848 65.978 90.3013 65.7666 90.8827C65.5728 91.3408 65.3437 91.8869 64.8328 92.0631C64.2515 92.1336 63.7406 91.8517 63.2297 91.6227C63.6878 90.4071 64.2163 89.2091 64.7624 88.0464Z" fill="#FDFDFD"/>
<path d="M88.913 97.6477C89.1068 98.4052 89.4239 99.1804 90.0405 99.7089C90.6924 100.29 91.6261 100.308 92.4365 100.167C93.335 100.008 94.2511 99.4975 94.6563 98.6343C95.0614 97.7358 94.85 96.714 94.621 95.7979C94.163 94.089 93.7754 92.3449 93.3878 90.6184C93.2116 89.7552 92.8065 88.8567 92.0313 88.3635C91.2914 87.8878 90.3577 88.0111 89.5473 88.2225C88.7722 88.4339 88.0146 88.892 87.6622 89.6319C87.2394 90.4775 87.4156 91.4641 87.6094 92.3449C88.0498 94.1243 88.4726 95.886 88.913 97.6477ZM89.2478 90.5832C89.3535 90.2133 89.6882 89.9137 90.0582 89.8257C90.5867 89.6671 91.2561 89.8609 91.3971 90.4423C91.9256 92.3625 92.2955 94.3181 92.8064 96.256C92.9121 96.7845 93.1059 97.313 93.0178 97.8415C92.8064 98.3877 92.1193 98.6695 91.5732 98.5286C91.0447 98.37 90.8157 97.8063 90.6923 97.313C90.2519 95.5689 89.8643 93.8248 89.4239 92.0983C89.3182 91.605 89.1773 91.0941 89.2478 90.5832Z" fill="#FDFDFD"/>
<path d="M71.455 96.2031C72.5296 96.4673 73.8333 96.7668 74.7846 96.0093C75.8593 95.058 75.9297 93.5077 76.0883 92.1864C76.2469 91.1998 75.8064 90.0723 74.8375 89.6847C73.6043 89.2091 72.2478 89.1034 70.9617 88.8391C70.3275 92.6973 69.4819 96.5202 68.8477 100.378C69.429 100.484 70.028 100.607 70.6094 100.731C70.9088 99.2156 71.1555 97.7182 71.455 96.2031ZM72.4239 90.7946C73.0405 90.9532 74.0623 90.9003 74.2561 91.6755C74.2914 92.5916 74.168 93.5253 73.8333 94.3885C73.3929 95.1461 72.3887 94.7937 71.7193 94.5823C71.9659 93.3139 72.1773 92.0454 72.4239 90.7946Z" fill="#FDFDFD"/>
<path d="M81.1091 101.629C80.9858 99.9908 80.9505 98.3348 80.8448 96.6963C81.4086 96.6963 82.0076 96.573 82.5537 96.7316C83.1351 97.2601 83.0998 98.141 83.1527 98.8633C83.2055 99.6913 83.0646 100.607 83.5226 101.33C84.1216 101.488 84.7735 101.312 85.39 101.312C84.703 100.132 85.1434 98.7224 84.8791 97.4539C84.7911 96.6435 84.333 95.8508 83.5402 95.5513C84.0864 95.2518 84.5092 94.7409 84.5973 94.1066C84.7206 93.1553 84.6677 92.1687 84.4211 91.2351C84.1568 90.3013 83.2055 89.72 82.2718 89.72C81.0562 89.72 79.823 89.8257 78.6074 89.808C78.8364 93.7543 79.1007 97.7005 79.2769 101.664C79.8583 101.682 80.4749 101.664 81.1091 101.629ZM82.6242 91.9573C82.8003 92.7853 82.9413 93.7191 82.6418 94.5471C82.1837 95.0756 81.3557 94.9347 80.7215 95.058C80.6158 93.86 80.5806 92.6444 80.5453 91.4464C81.2324 91.4993 82.3423 91.0765 82.6242 91.9573Z" fill="#FDFDFD"/>
<path d="M16.0134 76.0138C20.5763 75.3443 25.1743 74.9744 29.7548 74.393C30.5828 74.2697 31.4284 74.1464 32.2741 74.0935C32.5383 74.0583 32.8202 74.0407 33.0845 73.9878C34.7757 73.6883 36.5022 73.6178 38.2111 73.3712C43.9014 72.7194 49.5918 71.9618 55.2997 71.4157C55.6521 71.3805 56.0044 71.3276 56.3744 71.2747C57.1495 72.2261 57.8895 73.195 58.6999 74.0935C62.2409 77.934 66.8038 80.8937 71.8599 82.3031C78.4487 84.2762 85.7422 83.6772 91.9434 80.7351C97.0877 78.2159 101.492 74.1639 104.258 69.1254C104.152 69.0021 103.958 68.7378 103.87 68.6145C103.817 68.7026 103.729 68.8612 103.676 68.9492C101.421 72.8074 98.2504 76.137 94.5156 78.5682C88.5257 82.4088 80.9856 83.6596 74.0444 82.1973C68.4598 81.1051 63.4037 78.0573 59.4398 74.0406C58.5765 73.195 57.8895 72.2084 57.1672 71.2395C63.157 70.4996 69.1821 69.883 75.1895 69.1607C84.1038 68.1213 93.0357 67.0642 101.968 66.0953C103.025 65.9896 104.082 65.8134 105.156 65.8134C105.35 65.8839 105.562 65.972 105.755 66.0601C105.791 65.972 105.879 65.7958 105.914 65.7077C106.284 65.6725 106.636 65.6196 107.006 65.5844C114.67 64.7035 122.316 63.8403 129.979 62.977C130.243 62.9594 130.507 62.9242 130.789 62.889C131.67 62.7657 132.551 62.6599 133.432 62.5895C138.153 62.0433 142.875 61.4972 147.596 60.9687C147.896 60.9158 148.178 60.8453 148.477 60.7925C147.913 54.4327 146.98 48.1081 146.433 41.7483C146.24 39.1586 145.817 36.6041 145.623 34.0144C145.535 32.6931 145.288 31.3894 145.183 30.0681C139.986 30.6848 134.806 31.3366 129.609 31.9179C129.415 31.9532 129.221 31.9708 129.028 31.9884C127.037 27.6017 124.465 23.5145 121.505 19.7092C116.079 12.9443 108.891 7.71195 100.964 4.24139C96.6297 2.47966 92.1197 1.15837 87.4864 0.524184C79.3472 -0.673789 70.9615 0.224682 63.1395 2.77916C60.0212 3.76574 57.0263 5.12225 54.1899 6.72541C48.8343 9.63225 44.0248 13.5432 40.0081 18.1237C36.749 21.7528 34.1416 25.9457 31.9395 30.2972C29.8959 34.5253 28.3808 39.0001 27.5528 43.6334C22.5495 44.2323 17.5463 44.7785 12.543 45.4303C13.0539 49.218 13.2829 53.0585 13.829 56.8462C14.428 62.8361 15.1503 68.8083 15.7669 74.7982C15.802 75.1858 15.8549 75.6086 16.0134 76.0138ZM46.2269 65.1969C45.9274 64.2279 45.6984 63.2238 45.3989 62.2548C44.1657 62.3253 42.9325 62.5367 41.7169 62.6777C41.664 63.6818 41.6288 64.7036 41.5231 65.7078C40.6951 65.8135 39.8671 65.9016 39.0567 66.0249C39.4971 60.3874 39.9376 54.7676 40.2194 49.1125C41.4526 48.9187 42.6858 48.8129 43.919 48.6368C44.8527 51.4379 45.6103 54.2919 46.5263 57.093C47.2839 59.7004 48.1648 62.2901 48.9046 64.8974C47.9886 65.0031 47.1077 65.1088 46.2269 65.1969ZM43.9366 30.1563C43.8309 29.1345 43.7957 28.0951 43.6195 27.0733C44.4828 27.9365 45.3813 28.7469 46.2621 29.5926C47.3192 29.1346 48.3234 28.6237 49.3804 28.148C48.7814 29.0993 48.3586 30.1563 47.7772 31.1253C48.5348 32.059 49.3628 32.9399 50.2084 33.7855C49.0809 33.5565 47.9357 33.4332 46.8083 33.257C46.2445 34.2788 45.5222 35.2301 45.0113 36.2695C44.8175 35.1596 44.518 34.0673 44.3595 32.9399C43.1968 32.6932 42.034 32.3937 40.8713 32.1471C41.8931 31.7419 42.8268 31.1077 43.8134 30.632C44.06 30.6144 43.919 30.3325 43.9366 30.1563ZM56.3215 64.0517C54.6303 60.264 53.08 56.4059 51.2654 52.671C51.653 56.6173 52.1815 60.5459 52.5867 64.4746C51.7939 64.5979 51.0011 64.6683 50.2084 64.7917C49.9265 62.8362 49.8208 60.8454 49.5742 58.8723C49.169 55.296 48.8342 51.7021 48.4114 48.1082C49.4508 48.0377 50.4903 47.8615 51.5297 47.8087C52.939 51.015 54.4013 54.1861 55.7402 57.4277C55.5288 54.0804 54.9826 50.7507 54.7184 47.3859C55.4759 47.333 56.2334 47.2449 57.0086 47.1568C57.4842 51.3497 57.9423 55.5602 58.4004 59.7707C58.5589 61.092 58.6822 62.4133 58.8936 63.7346C58.0656 63.8932 57.1847 63.9284 56.3215 64.0517ZM66.3105 27.4785C72.635 23.9375 80.3513 22.9157 87.3453 24.8888C90.8864 25.8401 94.2865 27.4257 97.2286 29.6278C99.3779 31.1605 101.263 33.0103 103.025 34.9834C102.602 35.0363 102.179 35.0715 101.774 35.1243C97.6514 30.2444 91.8553 26.8267 85.6189 25.4877C79.3119 24.1665 72.5822 25.2059 66.9271 28.2889C61.7828 31.0195 57.5371 35.3886 54.8593 40.5504C54.4541 40.6033 54.0665 40.6385 53.6613 40.6737C56.4448 35.142 60.8844 30.4382 66.3105 27.4785ZM57.3609 13.4905C57.8718 13.2438 58.3651 12.9972 58.8584 12.7506C60.2502 15.7631 61.6595 18.7756 63.0513 21.7882C64.0731 21.3125 65.1125 20.8544 66.0991 20.3435C66.3281 20.8192 66.5395 21.3125 66.7861 21.7882C65.2358 22.5281 63.7384 23.3385 62.1704 24.0255C60.9901 21.4886 59.7921 18.9694 58.6294 16.4325C58.2242 15.446 57.6604 14.5123 57.3609 13.4905ZM67.1032 10.108C67.5084 9.31521 68.4069 8.9276 69.2349 8.73385C70.0982 8.50481 71.1199 8.59292 71.7894 9.24474C72.6526 10.0375 72.7583 11.2883 72.9873 12.363C73.2692 13.8781 73.6392 15.3755 73.9915 16.873C74.2206 18.0005 74.0796 19.4275 73.005 20.0969C71.9303 20.7135 70.4681 20.9954 69.3582 20.3083C68.583 19.815 68.2659 18.899 68.1074 18.0533C67.7726 16.3445 67.4379 14.6356 67.0327 12.9444C66.8566 12.0106 66.6099 10.9712 67.1032 10.108ZM76.5108 19.6389C77.3564 15.675 78.1668 11.6935 79.0476 7.74727C79.8756 7.72966 80.686 7.72966 81.514 7.74727C82.2363 11.7464 82.9939 15.7279 83.7338 19.727C83.1172 19.7094 82.5182 19.6917 81.9016 19.6741C81.7783 18.9342 81.6374 18.1943 81.5493 17.4367C80.598 17.3663 79.6466 17.3839 78.6953 17.3487C78.5544 18.1238 78.3782 18.8813 78.2373 19.6389C77.6735 19.6389 77.0922 19.6389 76.5108 19.6389ZM85.9183 19.9912C86.9225 16.2564 87.7329 12.4687 88.6314 8.6986C89.3537 8.87478 90.076 9.01571 90.7983 9.13903C91.0449 11.7111 91.2035 14.2832 91.3973 16.8553C91.9611 14.4594 92.4896 12.0635 93.1238 9.70275C93.6347 9.84368 94.1456 9.94939 94.6741 10.0551C93.7403 13.8604 92.8771 17.7009 91.9434 21.5063C91.362 21.3653 90.7983 21.2068 90.2169 21.0482C89.9174 18.1414 89.8118 15.2169 89.477 12.3101C88.8428 15.0055 88.191 17.6833 87.5567 20.3788C87.0282 20.2379 86.4821 20.1145 85.9183 19.9912ZM101.034 35.1772C92.5952 36.1461 84.1566 37.2208 75.7004 38.1545C68.9882 38.9649 62.2585 39.6872 55.5463 40.48C58.6293 34.8425 63.5974 30.2268 69.5344 27.7252C74.7314 25.4702 80.6684 24.9592 86.2002 26.2453C89.8469 27.179 93.388 28.7117 96.4005 30.9843C98.1271 32.1823 99.6069 33.6445 101.034 35.1772ZM70.9438 62.3429C70.6619 61.3387 70.3448 60.3521 70.0982 59.3479C68.9002 59.4889 67.7199 59.5593 66.5219 59.7179C66.469 60.7926 66.4514 61.8672 66.3457 62.9419C65.5529 63.0299 64.7601 63.0828 63.9674 63.1885C64.3726 57.5686 64.7249 51.9311 65.1478 46.3113C66.3457 46.1703 67.5437 46.0294 68.7417 45.8884C70.4153 51.2617 71.948 56.6878 73.604 62.061C72.7055 62.1491 71.8246 62.2724 70.9438 62.3429ZM80.9503 53.9043C79.8933 54.9613 78.2901 55.0141 76.8983 55.1375C77.145 57.2868 77.2859 59.4537 77.6206 61.603C76.7398 61.7263 75.8589 61.8144 74.9781 61.8672C74.3615 56.353 73.7977 50.8212 73.1811 45.3071C74.9253 45.2014 76.6341 44.849 78.3782 44.8138C79.5057 44.7786 80.6684 45.3775 81.1617 46.4169C81.6902 47.4916 81.6902 48.7248 81.884 49.8875C82.0954 51.2617 81.9721 52.8648 80.9503 53.9043ZM91.4854 50.4337C91.4325 51.5612 90.9216 52.7592 89.8822 53.3053C88.8604 53.8338 87.6625 53.8514 86.5349 53.9571C86.7463 56.1416 86.993 58.3262 87.222 60.5283C86.3411 60.634 85.4779 60.7221 84.5971 60.8102C83.9981 55.2784 83.4344 49.7466 82.8001 44.2148C84.3504 44.0915 85.9184 43.9153 87.4687 43.7392C88.5257 43.6158 89.6709 43.9682 90.3755 44.7786C90.9569 45.4656 91.0978 46.3993 91.2388 47.2626C91.3621 48.3196 91.5206 49.3767 91.4854 50.4337ZM100.206 59.0308C99.8183 58.8018 99.7831 58.2557 99.6774 57.8505C99.5365 56.582 99.4484 55.3136 99.2722 54.0628C99.2017 53.4109 98.9022 52.671 98.2152 52.4596C97.4929 52.3187 96.7706 52.4949 96.0659 52.6005C96.2949 54.8732 96.5416 57.1458 96.7706 59.436C95.9073 59.5417 95.0441 59.6298 94.1808 59.7179C93.6171 54.1685 92.9476 48.6191 92.4543 43.0521C94.2865 42.9816 96.0835 42.594 97.9157 42.6116C99.0784 42.6116 100.206 43.3339 100.593 44.4262C100.981 45.5185 101.052 46.6812 101.157 47.8087C101.281 48.9891 100.717 50.2399 99.6597 50.8036C100.717 50.8917 101.457 51.843 101.668 52.8296C102.02 54.4327 102.056 56.0887 102.302 57.7095C102.355 58.0971 102.549 58.4495 102.743 58.7842C101.897 58.8547 101.051 59.0308 100.206 59.0308ZM110.741 57.6215C109.613 58.3262 108.186 58.5023 106.883 58.3438C105.879 58.2381 104.927 57.6567 104.434 56.7758C103.765 55.666 103.729 54.3447 103.606 53.0938C103.342 50.7331 103.06 48.3901 102.796 46.0294C102.69 44.99 102.743 43.8801 103.342 42.9816C103.905 42.0831 104.927 41.6074 105.949 41.396C107.253 41.1846 108.768 41.1494 109.807 42.0831C110.899 43.0168 111.164 44.5143 111.287 45.8532C111.551 48.5662 111.939 51.244 112.186 53.9571C112.309 55.296 111.939 56.8463 110.741 57.6215ZM104.945 21.7529C106.002 22.1581 107.112 22.3519 108.186 22.7219C108.962 21.8939 109.702 21.0659 110.406 20.185C110.406 21.2773 110.424 22.3872 110.406 23.4794C111.498 23.8317 112.556 24.2546 113.63 24.6774C112.503 24.9769 111.428 25.4173 110.318 25.7696C110.283 26.8795 110.177 28.007 110.142 29.1169C109.437 28.2537 108.785 27.3728 108.046 26.5448C106.953 26.8795 105.808 27.0557 104.733 27.4257C105.526 26.5448 106.16 25.523 106.865 24.5717C106.178 23.638 105.597 22.669 104.945 21.7529ZM120.395 56.7054C119.127 56.8816 117.858 57.0401 116.59 57.1987C114.969 51.7726 113.419 46.3289 111.675 40.938C112.626 40.7971 113.577 40.7442 114.511 40.6033C115.392 43.8273 116.326 47.0336 117.189 50.2575C117.541 51.385 117.77 52.5654 118.158 53.6753C118.51 49.1477 118.598 44.5848 118.81 40.0396C119.655 39.9867 120.483 39.8634 121.311 39.7401C121.029 45.3952 120.589 51.0503 120.395 56.7054ZM136.85 37.9607C137.942 37.8727 139.14 38.0841 139.915 38.9121C140.761 39.8281 140.937 41.1318 141.042 42.3122C141.289 44.9019 141.641 47.474 141.923 50.0637C142.047 51.2265 141.87 52.4949 141.113 53.411C140.461 54.1862 139.422 54.4681 138.453 54.609C136.955 54.8204 135.44 54.9085 133.943 55.1199C133.344 49.5705 132.798 44.0211 132.146 38.4893C133.696 38.2778 135.264 38.1017 136.85 37.9607ZM130.049 38.7006C130.12 39.4758 130.19 40.2509 130.278 41.0261C128.693 41.2023 127.125 41.3785 125.557 41.5899C125.716 43.1402 125.945 44.6905 126.086 46.2408C127.336 46.0646 128.605 45.9941 129.873 45.7651C129.944 46.5403 130.049 47.3154 130.137 48.0906C128.887 48.2492 127.636 48.3901 126.367 48.4958C126.491 50.2223 126.702 51.9311 126.931 53.64C128.587 53.3758 130.261 53.2172 131.934 53.0234C132.005 53.8162 132.128 54.5913 132.234 55.3841C129.644 55.6484 127.072 55.9831 124.482 56.2297C123.883 50.6803 123.32 45.1309 122.668 39.5991C125.117 39.282 127.583 39.0177 130.049 38.7006ZM55.0707 8.9981C64.7073 3.50153 76.1937 1.31701 87.1868 2.92016C90.9921 3.46631 94.7093 4.4881 98.3208 5.827C104.487 8.1877 110.16 11.7992 114.969 16.2916C119.796 20.7664 123.69 26.2453 126.473 32.2175C126.226 32.2528 125.98 32.2704 125.716 32.3056C123.126 26.8267 119.55 21.841 115.233 17.5953C110.371 12.9267 104.663 9.06856 98.3384 6.65501C91.0802 3.78342 83.1348 2.65591 75.3656 3.39585C68.0193 4.08292 60.8139 6.4084 54.4893 10.1961C48.9223 13.4552 44.0775 17.8772 40.1489 22.9861C38.1053 25.7344 36.3084 28.6588 34.7757 31.7243C33.0492 35.4062 31.6927 39.282 30.7942 43.2459C30.5476 43.2811 30.2833 43.2987 30.0367 43.3339C32.9964 29.0288 42.3159 16.1506 55.0707 8.9981ZM28.8563 51.3145C29.4377 50.4689 30.4419 50.0461 31.4108 49.8523C32.644 49.6761 34.0182 49.6233 35.0752 50.3632C36.0265 51.0326 36.4846 52.213 36.6255 53.3405C36.9426 56.124 37.2949 58.9076 37.5944 61.7087C37.7882 62.8714 37.7178 64.1398 37.0483 65.1616C36.326 66.2187 35.0223 66.6943 33.8067 66.7824C32.8906 66.8353 31.8865 66.8705 31.0761 66.3772C29.9662 65.7783 29.4024 64.5274 29.2439 63.3295C28.8739 60.5107 28.6625 57.6568 28.3102 54.838C28.1516 53.64 28.1516 52.3363 28.8563 51.3145ZM22.0561 51.1384C22.6023 55.895 23.0603 60.6516 23.6417 65.3906C25.192 65.2321 26.7247 65.0559 28.275 64.8973C28.363 65.6549 28.4335 66.43 28.5745 67.1876C26.1433 67.4694 23.6945 67.6985 21.2634 68.0332C20.7348 62.5014 20.0125 56.9872 19.484 51.4554C20.3472 51.3674 21.1929 51.2088 22.0561 51.1384Z" fill="#ECA414"/>
<path d="M80.1588 9.98462C79.7536 11.8873 79.4365 13.8075 79.0312 15.7102C79.7535 15.7631 80.4935 15.7454 81.2334 15.7631C80.8282 13.8428 80.5639 11.8873 80.1588 9.98462Z" fill="#ECA414"/>
<path d="M69.9232 17.6834C70.0113 18.0534 70.0994 18.4762 70.3813 18.7581C71.0683 19.2866 72.3015 18.7581 72.2311 17.842C71.9668 16.0979 71.4912 14.3714 71.1741 12.6449C71.0331 12.0107 70.9803 11.3413 70.6632 10.7423C70.3813 10.249 69.6766 10.2842 69.2185 10.4604C68.7605 10.6718 68.5139 11.2003 68.6548 11.676C69.06 13.6843 69.518 15.675 69.9232 17.6834Z" fill="#ECA414"/>
<path d="M77.9726 27.4785C77.7083 28.3594 77.3912 29.2402 77.0212 30.0859C76.1756 30.2268 75.3476 30.4558 74.4844 30.5087C75.0833 30.8963 75.6295 31.3543 76.2109 31.7595C76.3518 31.8828 76.5984 31.9885 76.5632 32.2352C76.4927 33.0984 76.3342 33.9616 76.2637 34.8249C76.9156 34.2259 77.6731 33.7678 78.3778 33.2217C79.241 33.486 79.9986 33.9793 80.8089 34.3492C80.5623 33.5388 80.2628 32.7284 79.9809 31.9357C80.5799 31.2663 81.1965 30.632 81.8307 30.0154C80.9498 29.9978 80.0866 29.9274 79.2234 29.8569C78.8006 29.0817 78.3249 28.3065 77.9726 27.4785Z" fill="#ECA414"/>
<path d="M87.2923 29.8392C86.8871 30.3149 86.4643 30.7553 86.0063 31.1781C85.3544 31.0372 84.7026 30.9315 84.0684 30.7553C84.5616 31.1781 84.9492 31.7242 85.2487 32.3056C84.9316 32.8518 84.5969 33.3979 84.2093 33.9088C84.7731 33.7326 85.3544 33.5917 85.9358 33.4507C86.3762 33.944 86.8167 34.4373 87.169 35.001C87.169 34.3316 87.2395 33.6621 87.2747 32.9927C87.8561 32.7284 88.4551 32.517 89.0541 32.3232C88.4727 32.1118 87.8913 31.8475 87.3276 31.6009C87.2923 31.0372 87.2747 30.4382 87.2923 29.8392Z" fill="#ECA414"/>
<path d="M72.6703 31.9357C72.1065 32.1295 71.5252 32.3056 70.9614 32.4642C70.4681 32.059 69.9925 31.6186 69.5344 31.1605C69.6401 31.83 69.693 32.4994 69.693 33.1689C69.1821 33.5212 68.6536 33.8383 68.1074 34.085C68.724 34.1907 69.3406 34.3316 69.9572 34.4725C70.151 35.0892 70.3096 35.7234 70.3976 36.3752C70.6619 35.7938 70.9966 35.2301 71.3314 34.6839C71.9303 34.6663 72.5293 34.6839 73.1107 34.7368C72.7055 34.3316 72.3179 33.9088 71.948 33.486C72.177 32.9751 72.4236 32.4642 72.6703 31.9357Z" fill="#ECA414"/>
<path d="M138.682 52.0897C139.369 51.6845 139.299 50.786 139.263 50.0813C139.034 47.4916 138.664 44.9019 138.418 42.3122C138.347 41.5899 138.153 40.6738 137.361 40.4095C136.586 40.2157 135.775 40.48 135 40.5328C135.388 44.5143 135.881 48.4958 136.304 52.4773C137.096 52.3892 137.942 52.4244 138.682 52.0897Z" fill="#ECA414"/>
<path d="M108.433 44.7609C108.31 43.7568 107.147 43.3163 106.284 43.6863C105.579 43.8801 105.315 44.6552 105.421 45.3247C105.668 48.0201 106.055 50.7156 106.319 53.4286C106.407 54.1685 106.407 54.9789 106.866 55.5955C107.306 56.124 108.099 56.0712 108.698 55.9302C109.438 55.7012 109.667 54.8204 109.543 54.1333C109.138 51.015 108.839 47.8792 108.433 44.7609Z" fill="#ECA414"/>
<path d="M97.7575 45.1133C96.9648 44.6905 96.0663 45.0957 95.2383 45.1309C95.4145 46.8046 95.6259 48.4958 95.7844 50.1694C96.6477 50.0637 97.7223 50.1694 98.3742 49.4648C98.8322 48.7248 98.5679 47.8087 98.4975 46.9983C98.3742 46.3465 98.4094 45.5009 97.7575 45.1133Z" fill="#ECA414"/>
<path d="M87.8564 46.188C87.1341 45.9942 86.3942 46.2232 85.6719 46.2761C85.8481 48.0906 86.0771 49.9052 86.2532 51.7198C86.7994 51.6317 87.3455 51.5965 87.8916 51.4907C88.4554 51.385 88.8782 50.8213 88.8782 50.2576C88.9135 49.3238 88.7901 48.3725 88.6492 47.4564C88.5611 46.9632 88.4025 46.3466 87.8564 46.188Z" fill="#ECA414"/>
<path d="M78.5016 47.4563C77.7441 47.0335 76.8456 47.3506 76.0176 47.3859C76.229 49.2181 76.4228 51.0503 76.6518 52.8824C77.5151 52.7415 78.7306 52.9353 79.1887 52.0015C79.4882 51.1031 79.2063 50.1517 79.1358 49.2356C79.0654 48.6191 79.083 47.8439 78.5016 47.4563Z" fill="#ECA414"/>
<path d="M67.0868 49.1829C66.9987 51.9487 66.7697 54.697 66.6816 57.4453C67.5977 57.3396 68.5314 57.2339 69.4475 57.1635C69.0071 55.6836 68.6195 54.2038 68.1615 52.7239C67.7915 51.5612 67.5625 50.328 67.0868 49.1829Z" fill="#ECA414"/>
<path d="M41.8223 60.3698C42.7912 60.2641 43.7425 60.1408 44.6939 60.0175C43.9716 57.3221 43.1788 54.6442 42.386 51.9664C42.1394 54.7676 42.0866 57.5863 41.8223 60.3698Z" fill="#ECA414"/>
<path d="M31.7817 62.0786C31.8521 62.8009 31.8521 63.6289 32.4159 64.1574C33.3496 64.8797 35.1466 64.2808 34.9704 62.9419C34.7061 59.9469 34.3362 56.9344 34.0367 53.9395C33.9662 53.4286 33.9133 52.8472 33.5258 52.4596C33.0853 52.0545 32.4159 52.0545 31.8874 52.1954C31.1122 52.3716 30.7951 53.2172 30.9184 53.9395C31.218 56.6525 31.4998 59.3656 31.7817 62.0786Z" fill="#ECA414"/>
<path d="M132.588 65.6725C131.76 65.6901 130.932 65.8134 130.122 65.9191C129.717 67.5223 129.294 69.1255 128.818 70.711C126.616 77.4936 123.075 83.8358 118.389 89.2266C115.411 92.662 111.906 95.6393 108.136 98.1937C103.414 101.347 98.129 103.637 92.6325 105.047C85.6737 106.773 78.3802 107.073 71.3157 105.84C64.4098 104.677 57.7857 101.999 51.9368 98.1585C44.0267 92.9262 37.6493 85.4741 33.5445 76.9474C33.5269 76.9298 33.5093 76.877 33.5093 76.8593C32.6989 77.0003 31.8709 77.0355 31.0781 77.2645C32.1704 79.59 33.386 81.8626 34.7777 84.0119C35.5529 85.2627 36.4337 86.4431 37.3322 87.6058C40.9085 92.4329 45.348 96.5906 50.2984 99.9731C53.082 101.735 55.9535 103.391 58.9837 104.677C64.4979 106.897 70.2939 108.553 76.2485 108.887C80.829 109.152 85.4623 108.975 89.9899 108.095C95.3984 107.02 100.666 105.241 105.511 102.58C109.404 100.378 113.086 97.8062 116.345 94.7584C122.723 88.8919 127.532 81.4046 130.492 73.2655C131.443 70.8871 132.113 68.4031 132.676 65.9191C132.641 65.8663 132.606 65.743 132.588 65.6725Z" fill="#ECA414"/>
<path d="M61.6778 102.369C68.9713 105.241 76.9519 106.298 84.7563 105.593C90.0062 105.082 95.2385 103.867 100.066 101.717C104.84 99.6562 109.297 96.8198 113.173 93.3492C120.396 87.0775 125.61 78.6036 128.394 69.4779C128.729 68.3504 129.063 67.2229 129.292 66.0602C122.809 66.6944 116.361 67.5048 109.896 68.2271C108.469 68.3504 107.042 68.6675 105.58 68.6323C105.562 68.6499 105.545 68.7027 105.527 68.738C104.012 71.7505 101.898 74.4636 99.4314 76.789C97.652 78.4098 95.6789 79.8016 93.5825 80.9819C86.9056 84.6463 78.7312 85.4567 71.4377 83.2369C66.0292 81.669 61.2197 78.3746 57.4672 74.217C55.547 74.2698 53.6443 74.6221 51.7417 74.7983C45.9456 75.4854 40.1319 76.0491 34.3535 76.8243C39.7796 88.3812 49.7686 97.7006 61.6778 102.369ZM108.645 74.0231C108.997 73.5651 109.473 73.1247 110.072 73.0894C110.953 73.0013 111.728 73.5122 112.45 73.935C113.807 74.8159 115.181 75.6615 116.502 76.56C117.189 77.0356 117.912 77.5818 118.141 78.4274C118.405 79.2378 118.088 80.101 117.665 80.7881C117.137 81.6865 116.555 82.5498 115.956 83.3954C112.82 81.2814 109.685 79.1673 106.531 77.0532C107.253 76.0491 107.888 74.9921 108.645 74.0231ZM104.805 78.8326C105.245 79.2202 105.668 79.6078 106.073 80.013C105.21 80.7881 104.47 81.6514 103.642 82.4794C104.417 83.2017 105.157 83.924 105.897 84.6816C106.531 84.0121 107.201 83.3603 107.852 82.7084C108.275 83.0608 108.698 83.4131 109.121 83.7655C108.451 84.4526 107.747 85.1044 107.148 85.8619C107.976 86.6899 108.874 87.4651 109.649 88.3636C110.442 87.5708 111.288 86.8309 112.063 86.0381C112.45 86.4081 112.856 86.778 113.261 87.1304C112.028 88.3459 110.83 89.5968 109.561 90.7419C107.747 88.804 105.809 87.007 103.906 85.1572C103.025 84.3116 102.18 83.4308 101.264 82.638C102.373 81.299 103.695 80.1715 104.805 78.8326ZM95.767 86.2142C97.7401 88.663 99.6604 91.1823 101.669 93.5958C100.7 90.5129 99.5371 87.5003 98.4272 84.4701C98.9029 84.1178 99.3609 83.7654 99.8366 83.4131C100.612 85.6152 101.352 87.8526 102.162 90.0371C102.779 91.6403 103.272 93.2963 103.941 94.8819C103.131 95.3223 102.373 95.8508 101.581 96.3265C99.1319 93.2435 96.6655 90.1957 94.0758 87.236C94.71 86.9894 95.1504 86.3375 95.767 86.2142ZM87.6455 89.6672C88.0155 88.9273 88.7554 88.4516 89.5305 88.2578C90.3409 88.0288 91.2747 87.9231 92.0146 88.3988C92.7897 88.892 93.1949 89.7729 93.3711 90.6538C93.7587 92.3803 94.1462 94.1243 94.6043 95.8332C94.8509 96.7493 95.0623 97.7711 94.6395 98.6696C94.252 99.5328 93.3359 100.044 92.4198 100.202C91.6094 100.343 90.658 100.326 90.0239 99.7442C89.4073 99.2333 89.0901 98.4582 88.8964 97.683C88.4383 95.9213 88.0331 94.1596 87.5751 92.4155C87.3988 91.4994 87.2227 90.5128 87.6455 89.6672ZM82.237 89.7377C83.1707 89.7377 84.1396 90.319 84.3863 91.2528C84.6329 92.1865 84.6858 93.173 84.5625 94.1243C84.492 94.7586 84.0516 95.2695 83.5055 95.569C84.2806 95.8685 84.7387 96.6612 84.8444 97.4716C85.1263 98.74 84.6858 100.149 85.3553 101.33C84.7387 101.33 84.0868 101.506 83.4878 101.347C83.0298 100.625 83.1883 99.6914 83.1179 98.881C83.065 98.1587 83.1178 97.2778 82.5189 96.7493C81.9727 96.5907 81.3738 96.6964 80.81 96.714C80.9157 98.3524 80.9509 99.9908 81.0743 101.647C80.44 101.664 79.8234 101.682 79.2069 101.7C79.0307 97.7359 78.784 93.7896 78.5374 89.8433C79.7882 89.8434 81.0214 89.7377 82.237 89.7377ZM70.962 88.8392C72.2481 89.1211 73.6046 89.2092 74.8378 89.6848C75.8067 90.0724 76.2648 91.1999 76.0886 92.1865C75.9301 93.5078 75.8596 95.0581 74.7849 96.0094C73.8336 96.7669 72.53 96.4498 71.4553 96.2032C71.1558 97.7006 70.9092 99.2157 70.592 100.731C70.0107 100.607 69.4293 100.484 68.8303 100.378C69.4822 96.5203 70.3278 92.6973 70.962 88.8392ZM66.7691 87.2184C67.4386 87.606 67.9495 88.2578 68.0552 89.033C68.2137 89.9139 67.7733 90.7242 67.4738 91.4994C67.0862 92.3626 66.593 93.3668 65.6064 93.6663C64.5846 93.9834 63.5804 93.543 62.6467 93.1378C61.9596 94.5296 61.3607 95.9741 60.7264 97.3835C60.1979 97.1369 59.687 96.8902 59.1762 96.626C60.7969 93.0321 62.2239 89.3501 63.7919 85.721C64.7608 86.2495 65.8178 86.637 66.7691 87.2184ZM58.172 82.0566C58.9119 82.5499 59.6166 83.0784 60.3037 83.6421C58.8767 86.4433 57.4673 89.2444 56.0755 92.0631C55.7056 92.8207 55.318 93.5782 54.8776 94.3005C54.4195 93.9834 53.9791 93.6663 53.5563 93.2963C53.9262 92.6093 54.2609 91.9046 54.6309 91.2351C53.9262 90.6185 53.1687 90.0372 52.4464 89.4382C51.9179 89.9667 51.3893 90.5129 50.8608 91.059C50.4204 90.7066 49.9976 90.3543 49.5395 90.002C52.4111 87.3417 55.3004 84.7168 58.172 82.0566Z" fill="#ECA414"/>
<path d="M82.1857 74.6925C81.6749 73.9349 81.1287 73.2126 80.7587 72.3846C80.5649 73.2655 80.3183 74.1464 79.966 74.9744C79.226 75.2562 78.4509 75.3972 77.6934 75.6086C78.398 76.049 79.1908 76.419 79.8074 77.018C79.8074 77.8988 79.7193 78.7797 79.6841 79.6605C80.3183 79.0615 81.023 78.5507 81.7101 78.0398C82.4676 78.3569 83.2428 78.674 83.9827 79.0263C83.7184 78.1983 83.2075 77.4407 83.1371 76.5775C83.5775 75.8904 84.1236 75.2738 84.6522 74.6573C83.8418 74.6749 83.0138 74.6572 82.1857 74.6925Z" fill="#ECA414"/>
<path d="M90.395 72.5079C90.0955 73.0364 89.7608 73.5473 89.3732 74.023C88.7566 73.9525 88.14 73.8821 87.541 73.7764C87.9462 74.2521 88.3162 74.7453 88.6509 75.2738C88.3161 75.82 88.0343 76.4014 87.6643 76.9475C88.2809 76.648 88.9327 76.4542 89.567 76.278C89.9721 76.6656 90.3597 77.0355 90.7649 77.4231C90.7649 76.8241 90.7825 76.2251 90.8178 75.6262C91.3815 75.3267 91.9629 75.0448 92.5619 74.7806C91.9453 74.6925 91.3287 74.5163 90.7297 74.3401C90.624 73.7235 90.5359 73.1069 90.395 72.5079Z" fill="#ECA414"/>
<path d="M73.903 76.2956C74.1673 75.7142 74.4668 75.1505 74.7663 74.5867C74.2025 74.8157 73.6212 75.0271 73.0574 75.2561C72.5465 74.8686 72.0708 74.4634 71.6304 74.0229C71.6481 74.6043 71.6657 75.1857 71.7009 75.7671C71.1724 76.1018 70.6263 76.4189 70.0625 76.7008C70.6439 76.8417 71.2429 76.8946 71.789 77.1236C72.0708 77.6698 72.018 78.3568 72.1061 78.9558C72.5289 78.4625 72.8812 77.934 73.2688 77.4055C73.903 77.4583 74.5549 77.5464 75.1891 77.6874C74.6958 77.2822 74.2906 76.7889 73.903 76.2956Z" fill="#ECA414"/>
<path d="M115.744 78.2336C114.722 77.5289 113.7 76.8595 112.643 76.2077C111.833 75.6968 111.022 75.1154 110.089 74.8864C109.631 75.3972 109.243 75.961 108.855 76.5248C111.11 78.0046 113.383 79.5021 115.585 81.07C115.955 80.5238 116.378 79.9777 116.537 79.3259C116.572 78.815 116.114 78.4979 115.744 78.2336Z" fill="#ECA414"/>
<path d="M58.0664 84.3643C56.5161 85.5622 55.1595 87.0068 53.6797 88.3105C54.2082 88.8038 54.7896 89.2266 55.3181 89.7199C56.2342 87.9406 57.0974 86.126 58.0664 84.3643Z" fill="#ECA414"/>
<path d="M64.8297 92.063C65.3406 91.8868 65.5696 91.3407 65.7634 90.8826C65.9748 90.3013 66.2743 89.6847 66.1686 89.0504C65.9044 88.4867 65.2701 88.3105 64.7593 88.0463C64.2131 89.2266 63.6846 90.407 63.2266 91.6225C63.7198 91.834 64.2483 92.1335 64.8297 92.063Z" fill="#ECA414"/>
<path d="M90.6921 97.3129C90.8154 97.8062 91.0268 98.37 91.5729 98.5285C92.1191 98.6694 92.8061 98.3876 93.0175 97.8414C93.1056 97.2953 92.9295 96.7668 92.8062 96.2559C92.3129 94.318 91.9253 92.3625 91.3968 90.4422C91.2559 89.8432 90.5864 89.667 90.0579 89.8256C89.6879 89.9313 89.3532 90.2132 89.2475 90.5831C89.177 91.094 89.318 91.6049 89.4237 92.0982C89.8641 93.8247 90.2516 95.5688 90.6921 97.3129Z" fill="#ECA414"/>
<path d="M73.8328 94.3709C74.1675 93.5253 74.2908 92.574 74.2556 91.6578C74.0618 90.8827 73.04 90.9355 72.4234 90.777C72.1944 92.0278 71.9654 93.2962 71.7363 94.5647C72.3882 94.7761 73.3923 95.1284 73.8328 94.3709Z" fill="#ECA414"/>
<path d="M82.6433 94.5471C82.9428 93.7191 82.8019 92.7854 82.6257 91.9574C82.3438 91.0765 81.2163 91.4993 80.5469 91.4465C80.5821 92.6444 80.6349 93.86 80.7231 95.058C81.3573 94.9347 82.1853 95.0756 82.6433 94.5471Z" fill="#ECA414"/>
<path d="M130.121 65.9367C130.332 64.9149 130.544 63.8931 130.755 62.8713C130.473 62.9066 130.209 62.9418 129.945 62.9594C129.804 63.9988 129.557 65.003 129.328 66.0248C129.61 65.9896 129.857 65.9543 130.121 65.9367Z" fill="#AAA9AC"/>
<path d="M105.528 68.7203C105.546 68.7026 105.563 68.6498 105.581 68.6145C106.109 67.628 106.55 66.5886 106.973 65.5668C106.603 65.602 106.25 65.6548 105.88 65.6901C105.845 65.7782 105.757 65.9543 105.722 66.0424C105.317 66.9762 104.876 67.8922 104.4 68.8083C104.77 68.7731 105.158 68.7379 105.528 68.7203Z" fill="#AAA9AC"/>
<path d="M101.951 66.0778C93.019 67.0467 84.1047 68.0861 75.1728 69.1432C69.1653 69.8655 63.1579 70.4821 57.1504 71.222C57.8727 72.1909 58.5598 73.1775 59.423 74.0231C62.1889 73.5827 64.9724 73.2832 67.7559 72.9485C76.3883 71.9795 85.0208 70.9225 93.6708 69.9536C97.0005 69.6012 100.312 69.1784 103.642 68.9318C103.695 68.8437 103.783 68.6851 103.836 68.597C104.347 67.6986 104.752 66.7473 105.122 65.7783C104.065 65.7959 103.008 65.9897 101.951 66.0778Z" fill="#AAA9AC"/>
<path d="M58.6814 74.0935C57.871 73.1774 57.1311 72.2085 56.3559 71.2748C56.0035 71.3276 55.6512 71.3805 55.2812 71.4157C55.9507 72.3494 56.6906 73.2479 57.4129 74.1288C57.8357 74.1287 58.2586 74.1111 58.6814 74.0935Z" fill="#AAA9AC"/>
<path d="M33.5438 76.9475C33.7904 76.8946 34.0547 76.8594 34.3189 76.8242C33.8961 75.8904 33.4381 74.9567 33.1034 73.9878C32.8391 74.023 32.5572 74.0583 32.293 74.0935C32.6982 75.0272 33.0857 75.9609 33.5262 76.877C33.5086 76.8946 33.5262 76.9298 33.5438 76.9475Z" fill="#AAA9AC"/>
<path d="M148.442 60.7749C148.143 60.8278 147.861 60.8982 147.561 60.9511C147.826 60.9511 148.09 60.9687 148.372 60.9863C144.919 63.5761 141.272 65.9192 137.784 68.4736C135.599 69.9359 133.521 71.539 131.318 72.9836C133.239 72.4023 135.194 71.8033 137.203 71.6095C144.02 70.8872 150.821 69.9887 157.638 69.2135C159.576 69.0198 161.514 68.6674 163.452 68.5089L163.628 68.4912C163.135 67.9275 162.747 67.2933 162.254 66.7295C159.4 62.9947 156.599 59.2246 153.851 55.4193C155.683 51.3145 157.374 47.1392 159.153 43.0168C159.612 42.0479 160.017 41.0437 160.457 40.0571C158.096 40.3038 155.753 40.6385 153.393 40.9027C151.613 41.1318 149.816 41.2551 148.055 41.537C147.509 41.6427 146.945 41.6779 146.381 41.7131C146.962 48.0905 147.896 54.4151 148.442 60.7749Z" fill="#C88C13"/>
<path d="M27.4299 83.9768C29.773 83.6773 32.1337 83.7125 34.4768 83.9592C32.9265 82.9726 31.1295 82.4617 29.4559 81.7218C24.9811 79.7839 20.4888 77.9165 16.014 76.0138C15.8555 75.6263 15.8026 75.2034 15.7674 74.7806C15.1507 68.7908 14.4285 62.8186 13.8295 56.8287C9.23142 57.4101 4.61571 57.9739 0 58.5376C1.18037 59.9998 2.21977 61.5501 3.32963 63.0476C5.53179 65.972 7.68105 68.967 9.81275 71.9619C9.68942 72.2437 9.54849 72.508 9.42517 72.7899C7.38159 77.5113 5.32036 82.2151 3.25917 86.9365C4.12242 86.7955 5.00325 86.7427 5.8665 86.5841C8.63242 86.1965 11.4159 85.9499 14.1994 85.5799C18.6213 85.069 23.0256 84.5053 27.4299 83.9768Z" fill="#C88C13"/>
<path d="M132.586 65.6725C132.603 65.7254 132.638 65.8487 132.656 65.9192C132.885 64.7917 133.22 63.6994 133.396 62.5719C132.515 62.6424 131.634 62.7481 130.753 62.8714C130.542 63.8932 130.331 64.915 130.119 65.9368C130.947 65.8135 131.758 65.7078 132.586 65.6725Z" fill="#ECA414"/>
<path d="M109.896 68.2095C116.362 67.4872 122.827 66.6768 129.293 66.0426C129.31 66.0426 129.328 66.025 129.346 66.025C129.575 65.0032 129.804 63.9814 129.962 62.9596C122.299 63.8229 114.653 64.6861 106.989 65.5669C106.567 66.6063 106.109 67.6282 105.598 68.6147C107.025 68.6499 108.452 68.3328 109.896 68.2095Z" fill="#ECA414"/>
<path d="M105.739 66.0425C105.527 65.9545 105.333 65.8664 105.14 65.7959C104.752 66.7648 104.364 67.7162 103.854 68.6146C103.942 68.738 104.153 69.0022 104.241 69.1255C104.294 69.0198 104.347 68.9141 104.417 68.8084C104.875 67.8923 105.316 66.9763 105.739 66.0425Z" fill="#ECA414"/>
<path d="M34.3525 76.8066C40.1309 76.0315 45.9446 75.4677 51.7406 74.7806C53.6433 74.6045 55.546 74.2521 57.4662 74.1993L57.4134 74.1288C56.6911 73.2304 55.9511 72.3495 55.2817 71.4158C49.5737 71.9619 43.901 72.7195 38.193 73.3713C36.4841 73.6003 34.7577 73.6884 33.0664 73.9879C33.4188 74.9568 33.8768 75.8905 34.282 76.8243L34.3525 76.8066Z" fill="#ECA414"/>
<path d="M33.4907 76.8594C33.0503 75.9434 32.6627 75.0096 32.2575 74.0759C31.4119 74.1464 30.5839 74.2521 29.7383 74.3754C30.1787 75.3268 30.6015 76.2957 31.042 77.247C31.8523 77.0356 32.6803 77.018 33.4907 76.8594Z" fill="#ECA414"/>
<path d="M148.372 60.9863C148.09 60.9687 147.826 60.9687 147.561 60.951C142.84 61.4796 138.119 62.0257 133.397 62.5718C133.221 63.6994 132.869 64.7916 132.657 65.9191C132.093 68.4207 131.424 70.8872 130.473 73.2655C130.755 73.1774 131.036 73.0717 131.318 72.9836C133.52 71.539 135.599 69.9359 137.784 68.4736C141.272 65.9191 144.919 63.576 148.372 60.9863Z" fill="#966B16"/>
<path d="M29.7551 74.3754C25.1746 74.9567 20.5765 75.3443 16.0137 75.9962C20.4884 77.9164 24.9808 79.7839 29.4556 81.7217C31.1292 82.4616 32.9262 82.9726 34.4765 83.9591C34.5469 83.9767 34.6879 83.9944 34.776 84.012C33.3666 81.8627 32.1686 79.5724 31.0764 77.2646C30.6183 76.3133 30.1955 75.3443 29.7551 74.3754Z" fill="#966B16"/>
</svg>
