<svg width="152" height="32" viewBox="0 0 152 32" fill="none" xmlns="http://www.w3.org/2000/svg">
<g clip-path="url(#clip0_5024_69)">
<path d="M72.2373 29.2908H68.7829V3.16059H71.0499C75.1086 3.16059 76.4679 5.13253 76.4679 8.10063C76.4679 8.59477 76.7975 13.4483 72.8086 14.3318C73.8228 14.5868 75.7334 15.2217 77.254 16.6224C78.8498 17.9436 79.5981 19.9884 79.5981 22.336C79.5981 26.4526 77.3319 29.2908 72.2373 29.2908ZM75.9069 14.2464C78.6279 13.2503 80.5053 11.3224 80.5053 8.26696C80.5053 3.54341 76.1878 1.5144 70.7045 1.5144H64.4648V30.9369H72.6252C78.7998 30.9369 84.1538 28.4385 84.1538 22.7621C84.1538 18.2773 80.8079 15.1998 75.9069 14.2464Z" fill="white"/>
<path d="M2.52985 29.9534C4.5372 30.9863 7.09141 31.4442 9.28597 31.4442C13.089 31.4442 19.7912 30.0784 19.7912 23.4054C19.7912 18.7295 16.412 16.1009 10.8471 12.3273C8.27172 10.4978 4.76415 8.64913 4.76415 5.63924C4.76415 3.13622 7.07765 1.63803 10.2814 1.63803C13.4973 1.63803 16.0125 3.1645 16.617 3.56465L15.0286 0.800302C13.9545 0.194861 11.5852 -0.000244141 10.327 -0.000244141C6.07588 -0.000244141 1.11036 1.79698 1.11036 6.86133C1.11036 10.8661 4.26491 13.1285 9.4905 16.8767C11.9173 18.6031 15.7308 21.3366 15.7308 24.6954C15.7308 27.8478 13.2704 29.8059 9.30839 29.8059C4.66659 29.8059 1.28968 27.0495 0.480469 26.3243L2.52985 29.9534Z" fill="white"/>
<path d="M50.471 16.2257C50.471 8.26039 46.605 2.64766 40.8255 2.64766C35.0454 2.64766 31.1792 8.26039 31.1792 16.2257C31.1792 24.2344 35.0454 29.8036 40.8255 29.8036C46.605 29.8036 50.471 24.2344 50.471 16.2257ZM40.8255 31.4442C32.9535 31.4442 26.8438 25.1633 26.8438 16.2257C26.8438 7.50467 32.9535 1.00708 40.8255 1.00708C48.6975 1.00708 54.7892 7.50467 54.7892 16.2257C54.7892 25.1633 48.6977 31.4442 40.8255 31.4442Z" fill="white"/>
<path d="M132.756 20.66H142.774L137.765 8.41778L132.756 20.66ZM143.444 22.3006H132.086L128.546 30.9375H126.861L139.189 0.860596L151.52 30.9375H146.985L143.444 22.3006Z" fill="white"/>
<path d="M114.239 1.52185V13.6067H98.4567V1.52185H94.1387V30.9381H98.4567V15.2473H114.239V30.9381H118.557V1.52185H114.239Z" fill="white"/>
</g>
<defs>
<clipPath id="clip0_5024_69">
<rect width="152" height="32" fill="white"/>
</clipPath>
</defs>
</svg>
